<svg width="2480" height="1757" viewBox="0 0 2480 1757" fill="none" xmlns="http://www.w3.org/2000/svg">
<g opacity="0.3">
<path d="M350.461 267.589L400.037 280.873L363.745 317.165L350.461 267.589Z" fill="white"/>
<path d="M840.179 1452.92L884.522 1461.06L855.302 1495.39L840.179 1452.92Z" fill="white"/>
<path d="M2435.02 71.1045L2435.59 107.99L2403.36 90.0422L2435.02 71.1045Z" fill="white"/>
<path d="M1611.64 1669.45L1612.52 1726.23L1562.91 1698.6L1611.64 1669.45Z" fill="white"/>
<path d="M1314.35 1050.07L1337.2 1110.09L1273.8 1099.87L1314.35 1050.07Z" fill="white"/>
<path d="M72.4365 1324.16L32.7566 1384.89L0 1320.16L72.4365 1324.16Z" fill="white"/>
<path d="M1833.66 185.847L1781.45 265.756L1738.35 180.588L1833.66 185.847Z" fill="white"/>
<path d="M1027.14 1510.55L1102.72 1507.88L1067.25 1574.67L1027.14 1510.55Z" fill="white"/>
<path d="M1617.29 474.645L1662.86 499.118L1618.88 526.34L1617.29 474.645Z" fill="white"/>
<path d="M503.637 1616.87L443.25 1693.35L407.21 1602.81L503.637 1616.87Z" fill="white"/>
<path d="M1958.43 666.434L1878.01 689.18L1898.52 608.166L1958.43 666.434Z" fill="white"/>
<path d="M708.233 1136.57L690.316 1188.07L654.67 1146.8L708.233 1136.57Z" fill="white"/>
<path d="M2410.07 1284.49L2355.47 1300.4L2368.99 1245.17L2410.07 1284.49Z" fill="white"/>
<path d="M603.295 102.653L615.959 166.475L554.356 145.532L603.295 102.653Z" fill="white"/>
<path d="M917.082 47.9718L860.271 50.4278L886.549 0L917.082 47.9718Z" fill="white"/>
<path d="M618.415 854.095L654.048 863.643L627.962 889.728L618.415 854.095Z" fill="white"/>
<path d="M155.16 1703.71L197.815 1670.8L204.983 1724.2L155.16 1703.71Z" fill="white"/>
<path d="M49.6561 207.622L42.064 247.767L11.0935 221.119L49.6561 207.622Z" fill="white"/>
<path d="M450.312 681.012L512.067 717.963L449.19 752.969L450.312 681.012Z" fill="white"/>
<path d="M1362.71 614.087L1426.19 622.809L1386.9 673.419L1362.71 614.087Z" fill="white"/>
<path d="M2202.33 1108.65L2234.12 1175.36L2160.45 1169.54L2202.33 1108.65Z" fill="white"/>
<path d="M2428.29 1679.11L2480 1744.09L2397.86 1756.38L2428.29 1679.11Z" fill="white"/>
<path d="M603.5 482.372C603.5 493.273 594.663 502.11 583.762 502.11C572.861 502.11 564.024 493.273 564.024 482.372C564.024 471.471 572.861 462.634 583.762 462.634C594.663 462.634 603.5 471.471 603.5 482.372Z" fill="white"/>
<path d="M947.979 628.683C947.979 636.515 941.63 642.864 933.797 642.864C925.965 642.864 919.616 636.515 919.616 628.683C919.616 620.85 925.965 614.501 933.797 614.501C941.63 614.501 947.979 620.85 947.979 628.683Z" fill="white"/>
<path d="M1891.93 1595.15C1891.93 1608.96 1880.74 1620.16 1866.93 1620.16C1853.12 1620.16 1841.93 1608.96 1841.93 1595.15C1841.93 1581.34 1853.12 1570.15 1866.93 1570.15C1880.74 1570.15 1891.93 1581.34 1891.93 1595.15Z" fill="white"/>
<path d="M2471.62 595.98C2471.62 606.209 2463.33 614.501 2453.1 614.501C2442.87 614.501 2434.58 606.209 2434.58 595.98C2434.58 585.752 2442.87 577.46 2453.1 577.46C2463.33 577.46 2471.62 585.752 2471.62 595.98Z" fill="white"/>
<path d="M212.138 495.045C212.138 501.693 206.748 507.083 200.1 507.083C193.451 507.083 188.061 501.693 188.061 495.045C188.061 488.396 193.451 483.006 200.1 483.006C206.748 483.006 212.138 488.396 212.138 495.045Z" fill="white"/>
<path d="M1923.42 1261.79C1923.42 1270.48 1916.37 1277.53 1907.68 1277.53C1898.98 1277.53 1891.93 1270.48 1891.93 1261.79C1891.93 1253.09 1898.98 1246.04 1907.68 1246.04C1916.37 1246.04 1923.42 1253.09 1923.42 1261.79Z" fill="white"/>
<path d="M2112.33 132.972C2112.33 145.246 2102.38 155.196 2090.1 155.196C2077.83 155.196 2067.88 145.246 2067.88 132.972C2067.88 120.698 2077.83 110.747 2090.1 110.747C2102.38 110.747 2112.33 120.698 2112.33 132.972Z" fill="white"/>
<path d="M1265.95 1649.79C1265.95 1656.95 1260.14 1662.75 1252.98 1662.75C1245.82 1662.75 1240.02 1656.95 1240.02 1649.79C1240.02 1642.63 1245.82 1636.82 1252.98 1636.82C1260.14 1636.82 1265.95 1642.63 1265.95 1649.79Z" fill="white"/>
<path d="M1591.9 1215.49C1591.9 1221.11 1587.34 1225.67 1581.72 1225.67C1576.09 1225.67 1571.53 1221.11 1571.53 1215.49C1571.53 1209.86 1576.09 1205.3 1581.72 1205.3C1587.34 1205.3 1591.9 1209.86 1591.9 1215.49Z" fill="white"/>
<path d="M2195.67 783.961C2195.67 789.587 2191.11 794.148 2185.48 794.148C2179.86 794.148 2175.3 789.587 2175.3 783.961C2175.3 778.336 2179.86 773.775 2185.48 773.775C2191.11 773.775 2195.67 778.336 2195.67 783.961Z" fill="white"/>
<path d="M525.132 1063.62C525.132 1069.24 520.572 1073.81 514.946 1073.81C509.32 1073.81 504.76 1069.24 504.76 1063.62C504.76 1057.99 509.32 1053.43 514.946 1053.43C520.572 1053.43 525.132 1057.99 525.132 1063.62Z" fill="white"/>
<path d="M364.005 1337.72C364.005 1345.39 357.786 1351.61 350.115 1351.61C342.444 1351.61 336.225 1345.39 336.225 1337.72C336.225 1330.05 342.444 1323.83 350.115 1323.83C357.786 1323.83 364.005 1330.05 364.005 1337.72Z" fill="white"/>
<path d="M1947.5 994.168C1947.5 1000.31 1942.52 1005.28 1936.38 1005.28C1930.25 1005.28 1925.27 1000.31 1925.27 994.168C1925.27 988.031 1930.25 983.056 1936.38 983.056C1942.52 983.056 1947.5 988.031 1947.5 994.168Z" fill="white"/>
<path d="M91.7557 766.368C91.7557 776.596 83.4639 784.888 73.2354 784.888C63.0069 784.888 54.715 776.596 54.715 766.368C54.715 756.139 63.0069 747.847 73.2354 747.847C83.4639 747.847 91.7557 756.139 91.7557 766.368Z" fill="white"/>
</g>
</svg>
