<?xml version="1.0" encoding="utf-8"?>
<!-- Generator: Adobe Illustrator 24.1.3, SVG Export Plug-In . SVG Version: 6.00 Build 0)  -->
<svg version="1.1" id="Warstwa_1" xmlns="http://www.w3.org/2000/svg" xmlns:xlink="http://www.w3.org/1999/xlink" x="0px"
     y="0px"
     viewBox="0 0 201.26 155.91" style="enable-background:new 0 0 201.26 155.91;" xml:space="preserve">
<style type="text/css">
	.st0{fill:#404042;}
	.st1{fill:#FFFFFF;}
	.st2{fill:#FECA09;}
	.st3{fill:#3E3E3F;}
</style>
    <g>
	<rect x="1.18" y="121.05" class="st0" width="198.89" height="33.74"/>
        <g>
		<path class="st1" d="M23.21,135.71c0,3.15-2.33,5.09-6.09,5.09h-3.23v4.13h-2.66v-14.31h5.89
			C20.88,130.61,23.21,132.54,23.21,135.71 M20.53,135.71c0-1.8-1.21-2.84-3.54-2.84h-3.11v5.68h3.11
			C19.32,138.55,20.53,137.5,20.53,135.71"/>
            <path class="st1" d="M34.65,138.53v6.4h-2.41v-1.33c-0.61,0.94-1.8,1.47-3.44,1.47c-2.49,0-4.07-1.37-4.07-3.27
			c0-1.82,1.23-3.25,4.54-3.25h2.82v-0.16c0-1.49-0.9-2.37-2.72-2.37c-1.23,0-2.49,0.41-3.31,1.08l-1-1.86
			c1.17-0.9,2.86-1.35,4.62-1.35C32.83,133.89,34.65,135.38,34.65,138.53 M32.1,141.51v-1.27h-2.64c-1.74,0-2.21,0.65-2.21,1.45
			c0,0.92,0.78,1.51,2.09,1.51C30.58,143.21,31.67,142.64,32.1,141.51"/>
            <path class="st1" d="M37.12,139.47c0-3.27,2.45-5.58,5.91-5.58c2.13,0,3.82,0.88,4.66,2.53l-1.96,1.15
			c-0.65-1.04-1.64-1.51-2.72-1.51c-1.88,0-3.31,1.31-3.31,3.41c0,2.13,1.43,3.41,3.31,3.41c1.08,0,2.06-0.47,2.72-1.51l1.96,1.14
			c-0.84,1.64-2.54,2.56-4.66,2.56C39.58,145.07,37.12,142.74,37.12,139.47"/>
            <polygon class="st1" points="58.32,142.88 58.32,144.93 48.9,144.93 48.9,143.31 54.89,136.05 49.02,136.05 49.02,134.01
			58.16,134.01 58.16,135.62 52.15,142.88 		"/>
            <polygon class="st1" points="65.13,140.24 63.23,142.04 63.23,144.93 60.67,144.93 60.67,129.75 63.23,129.75 63.23,138.91
			68.52,134.01 71.59,134.01 67.03,138.59 72.02,144.93 68.91,144.93 		"/>
            <path class="st1" d="M72.32,139.47c0-3.27,2.45-5.58,5.81-5.58c3.39,0,5.83,2.31,5.83,5.58s-2.43,5.6-5.83,5.6
			C74.77,145.07,72.32,142.74,72.32,139.47 M81.38,139.47c0-2.08-1.39-3.41-3.25-3.41c-1.84,0-3.23,1.33-3.23,3.41
			c0,2.09,1.39,3.41,3.23,3.41C79.99,142.88,81.38,141.55,81.38,139.47"/>
            <path class="st1" d="M104.66,138.67v6.26h-2.56V139c0-1.94-0.9-2.88-2.45-2.88c-1.68,0-2.84,1.1-2.84,3.27v5.54h-2.56V139
			c0-1.94-0.9-2.88-2.45-2.88c-1.7,0-2.84,1.1-2.84,3.27v5.54H86.4v-10.92h2.43v1.39c0.82-0.98,2.09-1.51,3.58-1.51
			c1.59,0,2.92,0.59,3.68,1.82c0.88-1.13,2.35-1.82,4.09-1.82C102.82,133.89,104.66,135.38,104.66,138.67"/>
            <path class="st1" d="M117.06,138.53v6.4h-2.41v-1.33c-0.61,0.94-1.8,1.47-3.44,1.47c-2.49,0-4.07-1.37-4.07-3.27
			c0-1.82,1.23-3.25,4.54-3.25h2.82v-0.16c0-1.49-0.9-2.37-2.72-2.37c-1.23,0-2.49,0.41-3.31,1.08l-1-1.86
			c1.17-0.9,2.86-1.35,4.62-1.35C115.25,133.89,117.06,135.38,117.06,138.53 M114.51,141.51v-1.27h-2.64
			c-1.74,0-2.21,0.65-2.21,1.45c0,0.92,0.78,1.51,2.09,1.51C113,143.21,114.08,142.64,114.51,141.51"/>
            <path class="st1" d="M126.9,144.33c-0.61,0.49-1.53,0.74-2.45,0.74c-2.39,0-3.76-1.27-3.76-3.68v-5.25h-1.8v-2.05h1.8v-2.49h2.56
			v2.49h2.93v2.05h-2.93v5.19c0,1.06,0.53,1.64,1.51,1.64c0.53,0,1.04-0.14,1.43-0.45L126.9,144.33z"/>
            <path class="st1" d="M139.02,134.01l-5.11,11.8c-1,2.47-2.39,3.23-4.21,3.23c-1.08,0-2.23-0.37-2.92-1l1.02-1.88
			c0.49,0.47,1.19,0.76,1.88,0.76c0.9,0,1.43-0.43,1.92-1.51l0.18-0.43l-4.76-10.96h2.66l3.44,8.08l3.46-8.08H139.02z"/>
            <path class="st1" d="M155.84,142.68v2.25h-10.55v-1.78l5.68-5.4c1.39-1.33,1.64-2.17,1.64-2.96c0-1.31-0.9-2.07-2.66-2.07
			c-1.39,0-2.56,0.47-3.35,1.49l-1.86-1.43c1.1-1.49,3.09-2.37,5.44-2.37c3.11,0,5.11,1.57,5.11,4.11c0,1.39-0.39,2.66-2.37,4.52
			l-3.82,3.64H155.84z"/>
            <polygon class="st1" points="169.82,141.67 167.29,141.67 167.29,144.93 164.71,144.93 164.71,141.67 156.86,141.67
			156.86,139.83 163.91,130.61 166.75,130.61 160.11,139.43 164.79,139.43 164.79,136.54 167.29,136.54 167.29,139.43
			169.82,139.43 		"/>
            <polygon class="st1" points="176.69,127.71 178.98,127.71 172.23,146.97 169.94,146.97 		"/>
            <polygon class="st1" points="190.03,130.61 190.03,132.39 184.47,144.93 181.63,144.93 187.01,132.86 181.39,132.86 181.39,135.3
			178.91,135.3 178.91,130.61 		"/>
	</g>
        <g>
		<rect x="1.18" y="1.11" class="st2" width="198.89" height="119.94"/>
            <g>
			<path class="st3" d="M105.02,76.91h-4.53V63.89c0-2.74-1.21-4.22-3.4-4.39c-1.37-0.11-3.54,0.22-5.11,0.57v16.84h-4.53V56.85
				c0,0,5.51-1.23,10.49-1.22c2.15,0,3.87,0.77,5.16,2.06c1.29,1.29,1.93,3.08,1.93,5.39V76.91z"/>
                <path class="st3" d="M181.44,77.04c-0.74,0.19-1.52,0.28-2.32,0.28c-2.55,0-4.24-0.57-5.06-1.7c-0.66-0.89-0.98-2.59-0.98-5.08
				V49.67h4.47v5.9h3.97v3.65h-3.97v11.04c0,1.19,0.15,1.98,0.46,2.36c0.36,0.49,1.12,0.73,2.28,0.73c0.33,0,0.72-0.03,1.16-0.08
				V77.04z"/>
                <path class="st1" d="M41.44,63.32c0,0-5.3,2.05-11.85,2.05c-6.54,0-11.85-2.05-11.85-2.05s5.31-2.05,11.85-2.05
				C36.14,61.27,41.44,63.32,41.44,63.32"/>
                <path class="st1" d="M57.83,33.16c0,0-4.7-3.17-8.36-8.48c-3.66-5.32-4.89-10.78-4.89-10.78s4.7,3.17,8.36,8.48
				C56.59,27.7,57.83,33.16,57.83,33.16"/>
                <path class="st1" d="M45.82,46.17c0,0-5.67-0.63-11.44-3.64c-5.78-3.01-9.48-7.26-9.48-7.26s5.67,0.63,11.44,3.64
				C42.12,41.92,45.82,46.17,45.82,46.17"/>
                <path class="st1" d="M57.26,73.19c3.36-0.03,7.42-2.68,7.42-2.68s-9.41-2.85-8.81-11.28c1.85-13.85,13.07-24.72,27.1-26.47
				c-1.49-0.21-3.01-0.31-4.56-0.31c-17.36,0.08-31.37,13.94-31.29,30.95c0.08,17.02,14.21,30.75,31.57,30.68
				c1.45-0.01,2.87-0.12,4.26-0.31c-12.32-1.54-22.34-10.05-25.94-21.31"/>
                <path class="st1" d="M57.83,93.36c0,0-4.7,3.17-8.36,8.49c-3.66,5.32-4.89,10.78-4.89,10.78s4.7-3.17,8.36-8.49
				C56.59,98.82,57.83,93.36,57.83,93.36"/>
                <path class="st1" d="M45.82,80.35c0,0-5.67,0.63-11.44,3.64C28.6,87,24.9,91.26,24.9,91.26s5.67-0.63,11.44-3.64
				C42.12,84.6,45.82,80.35,45.82,80.35"/>
                <rect x="78.34" y="49.65" class="st3" width="4.62" height="27.24"/>
                <path class="st3" d="M129.33,58.96c0,2.79-0.86,5.03-2.59,6.72c-1.73,1.69-4.07,2.54-7.02,2.54h-5.6v8.61h-4.62V49.58h9.89
				c3.2,0,5.66,0.83,7.37,2.5C128.47,53.74,129.33,56.03,129.33,58.96 M124.66,58.96c0-3.3-1.62-4.95-4.84-4.95h-5.7v9.82h5.61
				c1.55,0,2.75-0.43,3.62-1.28C124.23,61.7,124.66,60.5,124.66,58.96"/>
                <path class="st3" d="M150.72,66.09c0,3.27-0.92,5.91-2.75,7.92c-1.84,2-4.22,3-7.14,3c-2.92,0-5.31-1-7.14-3
				c-1.84-2-2.75-4.64-2.75-7.92c0-3.27,0.92-5.91,2.75-7.9c1.83-1.99,4.22-2.98,7.14-2.98c2.95,0,5.34,1,7.16,2.98
				C149.81,60.18,150.72,62.82,150.72,66.09 M146.04,66.11c0-2.05-0.48-3.68-1.43-4.88c-0.95-1.2-2.22-1.8-3.79-1.8
				c-1.57,0-2.84,0.61-3.79,1.82c-0.95,1.22-1.43,2.83-1.43,4.86c0,2.05,0.48,3.68,1.43,4.88c0.95,1.2,2.22,1.8,3.79,1.8
				c1.57,0,2.84-0.6,3.79-1.8C145.56,69.79,146.04,68.16,146.04,66.11"/>
                <path class="st3" d="M170.4,69.87c0,2.06-0.8,3.75-2.4,5.08c-1.6,1.33-3.71,1.99-6.33,1.99c-4.09,0-7.25-1.22-9.48-3.65
				l3.44-2.88c1.71,1.68,3.71,2.52,6,2.52c1.27,0,2.28-0.25,3.02-0.75c0.74-0.5,1.12-1.13,1.12-1.89c0-0.87-0.43-1.46-1.28-1.79
				c-0.5-0.19-1.82-0.45-3.98-0.77c-2.59-0.38-4.44-0.95-5.55-1.7c-1.3-0.92-1.94-2.3-1.94-4.14c0-1.87,0.79-3.43,2.36-4.69
				c1.57-1.26,3.67-1.89,6.3-1.89c3.17,0,5.88,1.04,8.12,3.13l-2.69,2.84c-1.63-1.43-3.48-2.15-5.55-2.15
				c-2.65,0-3.97,0.75-3.97,2.23c0,0.87,0.61,1.46,1.82,1.79c1.71,0.27,3.41,0.55,5.09,0.85C168.42,64.71,170.4,66.67,170.4,69.87"
                />
		</g>
	</g>
</g>
</svg>
