<?xml version="1.0" encoding="UTF-8"?>
<svg xmlns="http://www.w3.org/2000/svg" width="48" height="48" viewBox="0 0 48 48" fill="none">
  <path d="M37.3913 42.039V42.0955H37.4444C37.4561 42.0955 37.4662 42.0927 37.4734 42.0883C37.4801 42.084 37.484 42.0763 37.484 42.067C37.484 42.0576 37.4801 42.0505 37.4734 42.0461C37.4662 42.0412 37.4561 42.039 37.4444 42.039H37.3913ZM37.4449 41.9995C37.4723 41.9995 37.4935 42.0055 37.5086 42.0176C37.5237 42.0297 37.5309 42.0461 37.5309 42.067C37.5309 42.0845 37.5254 42.0988 37.5131 42.1103C37.5013 42.1213 37.4846 42.1284 37.4622 42.1311L37.5326 42.2106H37.4779L37.4125 42.1317H37.3913V42.2106H37.3455V41.9995H37.4449ZM37.431 42.2836C37.4561 42.2836 37.4796 42.2787 37.5008 42.2693C37.5226 42.26 37.5416 42.2474 37.5578 42.2315C37.574 42.2156 37.5868 42.1969 37.5963 42.175C37.6052 42.1536 37.6103 42.1306 37.6103 42.1059C37.6103 42.0812 37.6052 42.0582 37.5963 42.0368C37.5868 42.0154 37.574 41.9962 37.5578 41.9803C37.5416 41.9644 37.5226 41.9518 37.5008 41.9425C37.4796 41.9337 37.4561 41.9293 37.431 41.9293C37.4058 41.9293 37.3818 41.9337 37.36 41.9425C37.3377 41.9518 37.3181 41.9644 37.3019 41.9803C37.2857 41.9962 37.2729 42.0154 37.264 42.0368C37.2545 42.0582 37.25 42.0812 37.25 42.1059C37.25 42.1306 37.2545 42.1536 37.264 42.175C37.2729 42.1969 37.2857 42.2156 37.3019 42.2315C37.3181 42.2474 37.3377 42.26 37.36 42.2693C37.3818 42.2787 37.4058 42.2836 37.431 42.2836V42.2836ZM37.431 41.8783C37.4639 41.8783 37.4941 41.8843 37.5231 41.8964C37.5516 41.9079 37.5762 41.9244 37.598 41.9452C37.6192 41.9655 37.6359 41.9896 37.6482 42.0176C37.6605 42.045 37.6667 42.0746 37.6667 42.1059C37.6667 42.1372 37.6605 42.1668 37.6482 42.1942C37.6359 42.2216 37.6192 42.2457 37.598 42.2666C37.5762 42.2869 37.5516 42.3033 37.5231 42.3154C37.4941 42.3275 37.4639 42.3335 37.431 42.3335C37.3975 42.3335 37.3667 42.3275 37.3377 42.3154C37.3086 42.3033 37.2835 42.2869 37.2623 42.2666C37.2411 42.2457 37.2243 42.2216 37.212 42.1942C37.1997 42.1668 37.1936 42.1372 37.1936 42.1059C37.1936 42.0746 37.1997 42.045 37.212 42.0176C37.2243 41.9896 37.2411 41.9655 37.2623 41.9452C37.2835 41.9244 37.3086 41.9079 37.3377 41.8964C37.3667 41.8843 37.3975 41.8783 37.431 41.8783V41.8783ZM15.6699 41.065C15.6699 40.6624 15.9386 40.3317 16.3776 40.3317C16.797 40.3317 17.0802 40.6482 17.0802 41.065C17.0802 41.4818 16.797 41.7982 16.3776 41.7982C15.9386 41.7982 15.6699 41.4675 15.6699 41.065V41.065ZM17.5583 41.065V39.9199H17.0512V40.1979C16.8903 39.9917 16.6462 39.8623 16.3145 39.8623C15.6604 39.8623 15.1477 40.3657 15.1477 41.065C15.1477 41.7648 15.6604 42.2677 16.3145 42.2677C16.6462 42.2677 16.8903 42.1383 17.0512 41.932V42.2101H17.5583V41.065ZM34.6964 41.065C34.6964 40.6624 34.965 40.3317 35.404 40.3317C35.8241 40.3317 36.1067 40.6482 36.1067 41.065C36.1067 41.4818 35.8241 41.7982 35.404 41.7982C34.965 41.7982 34.6964 41.4675 34.6964 41.065ZM36.5853 41.065V39.0002H36.0776V40.1979C35.9168 39.9917 35.6727 39.8623 35.3409 39.8623C34.6869 39.8623 34.1742 40.3657 34.1742 41.065C34.1742 41.7648 34.6869 42.2677 35.3409 42.2677C35.6727 42.2677 35.9168 42.1383 36.0776 41.932V42.2101H36.5853V41.065ZM23.8536 40.3082C24.1803 40.3082 24.3903 40.5094 24.4439 40.8637H23.2336C23.2878 40.533 23.4922 40.3082 23.8536 40.3082ZM23.8636 39.8623C23.18 39.8623 22.7019 40.3509 22.7019 41.065C22.7019 41.7933 23.1995 42.2677 23.8977 42.2677C24.249 42.2677 24.5707 42.1816 24.8539 41.9469L24.6053 41.5778C24.4099 41.7308 24.1607 41.8174 23.9267 41.8174C23.6 41.8174 23.3023 41.6688 23.2291 41.2564H24.9611C24.9662 41.1944 24.9712 41.1319 24.9712 41.065C24.9662 40.3509 24.5171 39.8623 23.8636 39.8623ZM29.9874 41.065C29.9874 40.6624 30.256 40.3317 30.695 40.3317C31.1145 40.3317 31.3977 40.6482 31.3977 41.065C31.3977 41.4818 31.1145 41.7982 30.695 41.7982C30.256 41.7982 29.9874 41.4675 29.9874 41.065V41.065ZM31.8758 41.065V39.9199H31.3686V40.1979C31.2072 39.9917 30.9637 39.8623 30.6319 39.8623C29.9779 39.8623 29.4651 40.3657 29.4651 41.065C29.4651 41.7648 29.9779 42.2677 30.6319 42.2677C30.9637 42.2677 31.2072 42.1383 31.3686 41.932V42.2101H31.8758V41.065ZM27.1232 41.065C27.1232 41.7598 27.6158 42.2677 28.3676 42.2677C28.7189 42.2677 28.953 42.1909 29.2065 41.9946L28.963 41.592C28.7726 41.7264 28.5726 41.7982 28.3525 41.7982C27.9476 41.7933 27.6499 41.5059 27.6499 41.065C27.6499 40.6241 27.9476 40.3367 28.3525 40.3317C28.5726 40.3317 28.7726 40.4036 28.963 40.5379L29.2065 40.1354C28.953 39.9391 28.7189 39.8623 28.3676 39.8623C27.6158 39.8623 27.1232 40.3701 27.1232 41.065V41.065ZM33.662 39.8623C33.3693 39.8623 33.1788 39.9967 33.047 40.1979V39.9199H32.5443V42.2101H33.0521V40.9262C33.0521 40.5473 33.2179 40.3367 33.5497 40.3367C33.6525 40.3367 33.7597 40.3509 33.867 40.3943L34.0233 39.9248C33.9111 39.8815 33.7647 39.8623 33.662 39.8623V39.8623ZM20.0667 40.102C19.8226 39.944 19.4864 39.8623 19.1155 39.8623C18.5246 39.8623 18.1442 40.1403 18.1442 40.5955C18.1442 40.969 18.4274 41.1994 18.9491 41.2712L19.1887 41.3046C19.4668 41.343 19.5981 41.4149 19.5981 41.5443C19.5981 41.7215 19.4126 41.8224 19.0664 41.8224C18.715 41.8224 18.4615 41.7121 18.2905 41.5827L18.0515 41.9704C18.3296 42.1717 18.681 42.2677 19.0613 42.2677C19.7349 42.2677 20.1253 41.9562 20.1253 41.5202C20.1253 41.1176 19.8181 40.907 19.3104 40.8352L19.0714 40.8012C18.8519 40.7727 18.6759 40.7299 18.6759 40.5763C18.6759 40.4085 18.8418 40.3082 19.12 40.3082C19.4177 40.3082 19.7059 40.4184 19.8472 40.5045L20.0667 40.102ZM26.6105 39.8623C26.3178 39.8623 26.1273 39.9967 25.9961 40.1979V39.9199H25.4934V42.2101H26.0006V40.9262C26.0006 40.5473 26.1664 40.3367 26.4982 40.3367C26.601 40.3367 26.7082 40.3509 26.8155 40.3943L26.9719 39.9248C26.8596 39.8815 26.7132 39.8623 26.6105 39.8623V39.8623ZM22.2824 39.9199H21.453V39.225H20.9402V39.9199H20.4672V40.3751H20.9402V41.4198C20.9402 41.9512 21.1502 42.2677 21.7501 42.2677C21.9702 42.2677 22.2237 42.2008 22.3846 42.0905L22.2383 41.6639C22.0869 41.75 21.921 41.7933 21.7892 41.7933C21.5356 41.7933 21.453 41.6397 21.453 41.4099V40.3751H22.2824V39.9199ZM14.6992 42.2101V40.7727C14.6992 40.2314 14.3479 39.8672 13.7815 39.8623C13.4838 39.8574 13.1766 39.9484 12.9616 40.2698C12.8007 40.0158 12.5471 39.8623 12.1908 39.8623C11.9417 39.8623 11.6982 39.9341 11.5077 40.2023V39.9199H11V42.2101H11.5122V40.9405C11.5122 40.5429 11.7367 40.3317 12.0836 40.3317C12.4204 40.3317 12.5907 40.5473 12.5907 40.9356V42.2101H13.1034V40.9405C13.1034 40.5429 13.3375 40.3317 13.6743 40.3317C14.0206 40.3317 14.1864 40.5473 14.1864 40.9356V42.2101H14.6992Z" fill="#222222"/>
  <path d="M27.6663 36.4998H19.333V23.1665H27.6663V36.4998Z" fill="#FF5F00"/>
  <path d="M20.1555 29.8332C20.1555 27.1751 21.4632 24.8074 23.4997 23.2816C22.0105 22.1658 20.131 21.4998 18.0884 21.4998C13.2528 21.4998 9.33301 25.2307 9.33301 29.8332C9.33301 34.4356 13.2528 38.1665 18.0884 38.1665C20.131 38.1665 22.0105 37.5005 23.4997 36.3848C21.4632 34.8589 20.1555 32.4912 20.1555 29.8332Z" fill="#EB001B"/>
  <path d="M37.6667 29.8332C37.6667 34.4356 33.747 38.1665 28.9116 38.1665C26.8691 38.1665 24.9897 37.5005 23.5 36.3848C25.5369 34.8589 26.8446 32.4912 26.8446 29.8332C26.8446 27.1751 25.5369 24.8074 23.5 23.2816C24.9897 22.1658 26.8691 21.4998 28.9116 21.4998C33.747 21.4998 37.6667 25.2307 37.6667 29.8332Z" fill="#F79E1B"/>
  <path d="M21.0634 15.6665H18.5L20.1034 5.6665H22.6667L21.0634 15.6665Z" fill="#00579F"/>
  <path d="M31.8337 6.07863C31.2309 5.88276 30.2749 5.6665 29.0928 5.6665C26.0751 5.6665 23.95 6.9846 23.937 8.86908C23.9119 10.2594 25.4585 11.0317 26.6152 11.4953C27.7974 11.969 28.1993 12.2782 28.1993 12.7004C28.1873 13.349 27.244 13.6479 26.3642 13.6479C25.1441 13.6479 24.4904 13.4938 23.497 13.133L23.0946 12.9783L22.667 15.1513C23.3837 15.4188 24.7042 15.6561 26.0751 15.6665C29.2815 15.6665 31.3689 14.3688 31.3937 12.3606C31.4059 11.2586 30.5892 10.4142 28.8286 9.72426C27.7598 9.28134 27.1053 8.98268 27.1053 8.52949C27.1178 8.1175 27.6589 7.69552 28.8654 7.69552C29.8588 7.67485 30.5887 7.87045 31.1417 8.06617L31.4181 8.16897L31.8337 6.07863V6.07863Z" fill="#00579F"/>
  <path d="M35.3117 12.1239C35.5412 11.5495 36.4243 9.32599 36.4243 9.32599C36.4128 9.34734 36.6534 8.74089 36.791 8.36859L36.9858 9.23027C36.9858 9.23027 37.5135 11.624 37.6281 12.1239C37.1926 12.1239 35.8622 12.1239 35.3117 12.1239ZM38.7517 5.6665H36.5961C35.9313 5.6665 35.4263 5.84721 35.1395 6.49622L31 15.6665H33.9242C33.9242 15.6665 34.4056 14.4323 34.509 14.1664C34.8298 14.1664 37.6744 14.1664 38.0871 14.1664C38.1671 14.5175 38.4196 15.6665 38.4196 15.6665H41L38.7517 5.6665V5.6665Z" fill="#00579F"/>
  <path d="M16.3344 5.6665L13.5572 12.4928L13.2537 11.1083C12.7403 9.51086 11.13 7.77524 9.33301 6.91224L11.8768 15.6665H14.8756L19.333 5.6665H16.3344V5.6665Z" fill="#00579F"/>
  <path d="M11.0212 5.6665H6.05085L6 5.85233C9.87721 6.61555 12.445 8.45526 13.5 10.6665L12.4195 6.43961C12.2416 5.8522 11.6949 5.68588 11.0212 5.6665Z" fill="#FECC00"/>
</svg>
