<?xml version="1.0" encoding="UTF-8"?>
<svg xmlns="http://www.w3.org/2000/svg" width="48" height="48" viewBox="0 0 48 48" fill="none">
    <path
        d="M9.50099 37.2556C12.3438 40.1399 16.0136 42.0261 19.9844 42.6437C23.9552 43.2613 28.0232 42.5787 31.6053 40.6937C35.1875 38.8087 38.0998 35.8181 39.925 32.1505C41.7502 28.483 42.3945 24.3267 41.7656 20.2774C41.1367 16.2281 39.2668 12.4937 36.424 9.60939C33.5812 6.72509 29.9114 4.83897 25.9406 4.22136C21.9698 3.60374 17.9018 4.28635 14.3197 6.17134C10.7376 8.05632 7.82519 11.0469 6 14.7145M10.5945 44L8.76751 36.9636L15.4567 35.2099M21 15V25.8L29 31"
        stroke="#222222" stroke-linecap="round" stroke-linejoin="round"/>
</svg>
