<?xml version="1.0" encoding="UTF-8"?>
<svg xmlns="http://www.w3.org/2000/svg" width="48" height="48" viewBox="0 0 48 48" fill="none">
    <path
            d="M43.1791 35H4.82077C2.71061 35 1 33.3036 1 31.2111V14.7889C1 12.6962 2.71061 11 4.82077 11H43.1791C45.2893 11 47 12.6962 47 14.7889V31.2111C47 33.3036 45.2893 35 43.1791 35Z"
            fill="url(#paint0_linear)"/>
    <path d="M23 32H20V15H23V32Z" fill="white"/>
    <path d="M29 32H26V20H29V32Z" fill="white"/>
    <path d="M42 32L37.8563 26.0409L41.6678 20.7398H38.412L34.7575 25.8827V15H32V32H34.7575V26.2188L38.412 32H42"
          fill="white"/>
    <path
            d="M12 28.9883C10.4326 28.9883 9.1619 27.7779 9.1619 26.2849C9.1619 24.7921 10.4326 23.5817 12 23.5817C13.5674 23.5817 14.8381 24.7921 14.8381 26.2849C14.8381 27.7779 13.5674 28.9883 12 28.9883ZM12 20.5699C10.9732 20.5699 10.007 20.8161 9.1619 21.2491V15H6V26.2849C6 29.4413 8.68631 32 12 32C15.3137 32 18 29.4413 18 26.2849C18 23.1287 15.3137 20.5699 12 20.5699Z"
            fill="white"/>
    <path
            d="M17 16.5C17 17.8808 15.8807 19 14.5 19C13.1193 19 12 17.8808 12 16.5C12 15.1193 13.1193 14 14.5 14C15.8807 14 17 15.1193 17 16.5Z"
            fill="url(#paint1_radial)"/>
    <defs>
        <linearGradient id="paint0_linear" x1="24" y1="35" x2="24" y2="11" gradientUnits="userSpaceOnUse">
            <stop stop-color="#3D3E3F"/>
            <stop offset="1" stop-color="#050606"/>
        </linearGradient>
        <radialGradient id="paint1_radial" cx="0" cy="0" r="1" gradientUnits="userSpaceOnUse"
                        gradientTransform="translate(12.4673 13.8649) rotate(40) scale(8.19633)">
            <stop stop-color="#EE252C"/>
            <stop offset="0.494975" stop-color="#EF304C"/>
            <stop offset="1" stop-color="#9C41A6"/>
        </radialGradient>
    </defs>
</svg>
