<?xml version="1.0" encoding="UTF-8"?>
<svg xmlns="http://www.w3.org/2000/svg" width="48" height="48" viewBox="0 0 48 48" fill="none">
    <path fill-rule="evenodd" clip-rule="evenodd"
          d="M41.6992 14.8645L43.0212 14.8648C43.1654 14.8649 43.2822 14.7479 43.2824 14.6033L43.2828 13.2622C43.2828 13.1177 43.166 13.0006 43.0218 13.0005L41.6999 13C41.5556 13 41.4388 13.1171 41.4386 13.2616L41.4382 14.6027C41.4382 14.7473 41.555 14.8643 41.6992 14.8645ZM43.6684 17.6097L45.6148 17.6103C45.8272 17.6104 45.9992 17.438 45.9994 17.2253L46 15.2506C46.0001 15.038 45.8281 14.8654 45.6159 14.8654L43.6694 14.8646C43.457 14.8646 43.285 15.037 43.2848 15.2497L43.2842 17.2243C43.284 17.4371 43.4561 17.6095 43.6684 17.6097ZM22.3463 35C21.9033 35 21.7632 34.7549 21.681 34.3594L21.6431 34.1885C21.6056 34.008 21.5817 33.8061 21.6866 33.665C21.788 33.529 21.9696 33.489 22.2491 33.4656C23.6264 33.3239 24.0936 32.6858 24.5526 31.2389C24.3352 31.3124 24.074 31.3516 23.7913 31.3516C22.2775 31.3516 21.8724 30.295 21.5315 29.0187L19.7147 22.3495C19.6538 22.1232 19.6139 21.8928 19.732 21.7385C19.8499 21.5844 20.0795 21.563 20.3101 21.563H20.4632C21.0347 21.563 21.2543 21.732 21.4031 22.2858L23.2009 28.8977C23.4335 29.7224 23.667 29.8619 24.2503 29.8619C24.7268 29.8619 25.0049 29.7133 25.2031 28.9009L26.7905 22.289C26.9169 21.7397 27.141 21.563 27.7122 21.563H27.8842C28.1135 21.563 28.3422 21.5841 28.4631 21.7362C28.5838 21.8882 28.5523 22.1186 28.5001 22.3448L26.3 31.1634C25.6551 33.7485 24.5532 34.8581 22.4966 34.993C22.4429 34.9977 22.3929 35 22.3463 35ZM14.9552 31.3585C12.558 31.3585 11.2378 30.2943 11.2378 28.3616C11.2378 26.3694 12.5162 25.4414 15.2612 25.4414H17.3964V24.4134C17.3964 23.2612 16.7058 22.7912 15.0126 22.7912C14.0698 22.7912 13.2079 22.9308 12.9382 22.9985C12.8239 23.027 12.7281 23.0411 12.6455 23.0411C12.476 23.0411 12.3506 22.9804 12.2729 22.8606C12.2061 22.7578 12.1749 22.6118 12.1749 22.4011V22.2477C12.1749 21.7095 12.3724 21.5797 12.8445 21.4769C13.1112 21.4234 13.8142 21.2824 14.936 21.2824C17.7206 21.2824 19.0743 22.3066 19.0743 24.4134V28.2082C19.0743 30.3869 17.804 31.3585 14.9552 31.3585ZM15.2803 26.8162C13.5787 26.8162 12.9157 27.2495 12.9157 28.3616C12.9157 29.3759 13.5766 29.8688 14.936 29.8688C16.9938 29.8688 17.3964 29.239 17.3964 28.1509V26.8162H15.2803ZM35.5825 31.3547L35.5734 31.3546L35.5642 31.3547C33.0768 31.3547 31.3271 30.597 30.4238 29.1746C29.956 28.4406 29.7141 27.53 29.7141 26.4544V24.9882V22.3122V19.7685C29.7141 18.6884 30.1541 18.4928 31.3376 18.4928H31.71C32.8935 18.4928 33.3335 18.6884 33.3335 19.7685V22.296L33.3344 22.3122V22.866C33.3345 22.8744 33.3348 22.8824 33.3351 22.8904V22.8905C33.3355 22.9011 33.3359 22.9117 33.3359 22.9229V26.4544C33.3359 26.8862 33.4188 27.2298 33.5904 27.4968C33.9131 27.9944 34.5518 28.2206 35.5734 28.222C36.5954 28.2206 37.2342 27.9942 37.5568 27.4962C37.7281 27.2292 37.811 26.8859 37.811 26.4544V22.9229C37.811 22.9117 37.8114 22.9011 37.8118 22.8904C37.8121 22.8824 37.8124 22.8744 37.8125 22.866V22.3122L37.8133 22.296V19.7685C37.8133 18.6884 38.2534 18.4928 39.4367 18.4928H39.6275L39.6267 20.7848C39.6266 21.0712 39.8583 21.3036 40.144 21.3037L41.4327 21.304V22.3122V24.9882V26.4544C41.4327 27.53 41.1907 28.4406 40.7229 29.1746C39.8196 30.597 38.0701 31.3547 35.5825 31.3547ZM2.96327 31.1922H2.77197C2.18761 31.1922 2 31.0044 2 30.4187V20.6823C2 19.1663 2.67457 18.4904 4.18731 18.4904H7.0181C9.93273 18.4904 11.2902 19.7838 11.2902 22.5607C11.2902 25.3374 9.93273 26.6307 7.0181 26.6307H3.73524V30.4187C3.73524 31.0044 3.54768 31.1922 2.96327 31.1922ZM4.5125 20.1333C3.94592 20.1333 3.73524 20.3445 3.73524 20.9124V25.0069H7.0181C9.15075 25.0069 9.55498 24.1471 9.55498 22.5607C9.55498 20.5305 8.62481 20.1333 7.0181 20.1333H4.5125ZM42.7648 21.3044H42.7649C43.0506 21.3044 43.2823 21.0724 43.2825 20.7861L43.2834 18.1275C43.2834 17.841 43.0518 17.6089 42.766 17.6087L40.1454 17.6078H40.1453C39.8594 17.6078 39.6278 17.84 39.6277 18.1263L39.6275 18.4928H39.8093C40.9927 18.4928 41.4328 18.6884 41.4328 19.7685V21.304L42.7648 21.3044Z"
          fill="#ACD91A"/>
</svg>
