<?xml version="1.0" encoding="UTF-8"?>
<svg xmlns="http://www.w3.org/2000/svg" width="48" height="48" viewBox="0 0 48 48" fill="none">
    <path
        d="M32.3128 12.2861C32.5738 10.5935 32.311 9.44185 31.4108 8.39869C30.4196 7.25017 28.6291 6.75813 26.3383 6.75813H19.6886C19.2203 6.75813 18.8217 7.10459 18.7488 7.57494L15.9798 25.4315C15.9251 25.7838 16.1929 26.1023 16.5436 26.1023H20.6488L20.3655 27.9296C20.3177 28.2378 20.5519 28.5166 20.8588 28.5166H24.319C24.7286 28.5166 25.0773 28.2135 25.1411 27.8021L25.175 27.6233L25.8269 23.4196L25.869 23.1873C25.9327 22.7759 26.2814 22.4728 26.691 22.4728H27.2087C30.5609 22.4728 33.1857 21.0877 33.9527 17.0822C34.2731 15.4085 34.1074 14.0114 33.2599 13.0292C33.0036 12.7321 32.6847 12.4865 32.3128 12.2861"
        fill="#459ADB"/>
    <path
        d="M32.1963 12.4581C32.4555 10.7129 32.1946 9.52545 31.3008 8.44989C30.3167 7.26567 28.539 6.75835 26.2644 6.75835H19.6621C19.1972 6.75835 18.8014 7.11557 18.729 7.60054L15.9797 26.0119C15.9254 26.3752 16.1913 26.7036 16.5395 26.7036H20.6155L21.6394 19.847L21.6076 20.0619C21.6801 19.5771 22.0726 19.2199 22.5374 19.2199H24.4746C28.2792 19.2199 31.2583 17.5875 32.1288 12.8665C32.1546 12.7267 32.1766 12.5913 32.1963 12.4581"
        fill="#222D65"/>
    <path
        d="M22.7393 12.4812C22.7828 12.1896 22.9601 11.9508 23.1988 11.83C23.3072 11.7751 23.4284 11.7445 23.5556 11.7445H28.7309C29.344 11.7445 29.9156 11.7869 30.4384 11.8758C30.5877 11.9013 30.7331 11.9304 30.8742 11.9635C31.0154 11.9966 31.1524 12.0336 31.2852 12.0746C31.3515 12.095 31.4167 12.1165 31.4809 12.1389C31.7375 12.229 31.9764 12.3351 32.1963 12.4581C32.4555 10.7129 32.1946 9.52545 31.3008 8.44989C30.3167 7.26567 28.539 6.75835 26.2644 6.75835H19.6621C19.1972 6.75835 18.8014 7.11557 18.729 7.60054L15.9797 26.0119C15.9254 26.3752 16.1913 26.7036 16.5395 26.7036H20.6155L21.6394 19.847L22.7393 12.4812Z"
        fill="#253B7D"/>
    <path
        d="M10.32 31.2368H7.51989C7.32828 31.2368 7.16532 31.3769 7.13543 31.5673L6.00294 38.7942C5.98042 38.9368 6.09015 39.0653 6.23386 39.0653H7.57066C7.76227 39.0653 7.92523 38.9252 7.95512 38.7344L8.26056 36.7852C8.29003 36.5944 8.4534 36.4543 8.6446 36.4543H9.53103C11.3755 36.4543 12.4401 35.556 12.7181 33.7757C12.8433 32.9969 12.7234 32.3849 12.361 31.9563C11.9631 31.4857 11.2572 31.2368 10.32 31.2368ZM10.643 33.8763C10.4899 34.8875 9.72223 34.8875 8.97993 34.8875H8.55739L8.85383 32.9989C8.87143 32.8848 8.96969 32.8007 9.08434 32.8007H9.278C9.78365 32.8007 10.2606 32.8007 10.5071 33.0908C10.6541 33.2639 10.6991 33.521 10.643 33.8763Z"
        fill="#222D65"/>
    <path
        d="M18.6898 33.8437H17.3489C17.2346 33.8437 17.136 33.9278 17.1184 34.0419L17.059 34.4194L16.9652 34.2826C16.6749 33.8586 16.0276 33.7168 15.3815 33.7168C13.8998 33.7168 12.6342 34.8463 12.3878 36.4308C12.2596 37.2212 12.4418 37.977 12.8873 38.5041C13.2959 38.9887 13.8806 39.1906 14.5762 39.1906C15.7701 39.1906 16.4322 38.4179 16.4322 38.4179L16.3724 38.793C16.3499 38.9364 16.4596 39.0649 16.6025 39.0649H17.8103C18.0023 39.0649 18.1645 38.9248 18.1948 38.734L18.9195 34.1149C18.9424 33.9727 18.8331 33.8437 18.6898 33.8437ZM16.8207 36.4704C16.6913 37.2414 16.0833 37.759 15.3078 37.759C14.9185 37.759 14.6073 37.6333 14.4075 37.3951C14.2093 37.1586 14.134 36.8219 14.1971 36.4469C14.3178 35.6825 14.9361 35.148 15.6997 35.148C16.0805 35.148 16.39 35.2753 16.5939 35.5156C16.7982 35.7583 16.8793 36.097 16.8207 36.4704Z"
        fill="#222D65"/>
    <path
        d="M25.8314 33.8438H24.4839C24.3554 33.8438 24.2346 33.908 24.1617 34.0156L22.3033 36.7708L21.5155 34.1231C21.466 33.9575 21.3141 33.8438 21.1421 33.8438H19.818C19.6571 33.8438 19.5453 34.002 19.5965 34.1545L21.0807 38.5383L19.6854 40.5209C19.5756 40.6771 19.6862 40.8918 19.8758 40.8918H21.2216C21.3493 40.8918 21.4689 40.8291 21.5413 40.7236L26.023 34.2126C26.1303 34.0568 26.0201 33.8438 25.8314 33.8438Z"
        fill="#222D65"/>
    <path
        d="M30.2927 31.2368H27.4921C27.3009 31.2368 27.138 31.3769 27.1081 31.5673L25.9756 38.7942C25.9531 38.9368 26.0628 39.0653 26.2057 39.0653H27.6428C27.7763 39.0653 27.8905 38.9673 27.9114 38.8337L28.2328 36.7852C28.2623 36.5944 28.4257 36.4543 28.6169 36.4543H29.5029C31.3478 36.4543 32.4119 35.556 32.6903 33.7757C32.816 32.9969 32.6952 32.3849 32.3329 31.9563C31.9353 31.4857 31.2299 31.2368 30.2927 31.2368ZM30.6157 33.8763C30.463 34.8875 29.6953 34.8875 28.9526 34.8875H28.5305L28.8273 32.9989C28.8449 32.8848 28.9424 32.8007 29.0574 32.8007H29.2511C29.7563 32.8007 30.2337 32.8007 30.4802 33.0908C30.6272 33.2639 30.6718 33.521 30.6157 33.8763Z"
        fill="#179BD7"/>
    <path
        d="M38.6626 33.8437H37.3226C37.2075 33.8437 37.1096 33.9278 37.0925 34.0419L37.0331 34.4194L36.9389 34.2826C36.6486 33.8586 36.0017 33.7168 35.3556 33.7168C33.8739 33.7168 32.6087 34.8463 32.3623 36.4308C32.2345 37.2212 32.4159 37.977 32.8614 38.5041C33.2708 38.9887 33.8547 39.1906 34.5503 39.1906C35.7442 39.1906 36.4062 38.4179 36.4062 38.4179L36.3465 38.793C36.3239 38.9364 36.4337 39.0649 36.5774 39.0649H37.7848C37.976 39.0649 38.139 38.9248 38.1689 38.734L38.894 34.1149C38.9161 33.9727 38.8063 33.8437 38.6626 33.8437ZM36.7936 36.4704C36.665 37.2414 36.0562 37.759 35.2807 37.759C34.8922 37.759 34.5802 37.6333 34.3804 37.3951C34.1822 37.1586 34.1077 36.8219 34.1699 36.4469C34.2915 35.6825 34.9089 35.148 35.6725 35.148C36.0533 35.148 36.3628 35.2753 36.5667 35.5156C36.7719 35.7583 36.8529 36.097 36.7936 36.4704Z"
        fill="#179BD7"/>
    <path
        d="M40.243 31.435L39.0938 38.7941C39.0712 38.9367 39.181 39.0653 39.3239 39.0653H40.4793C40.6713 39.0653 40.8343 38.9251 40.8637 38.7343L41.9971 31.5079C42.0196 31.3653 41.9098 31.2363 41.7669 31.2363H40.4731C40.3589 31.2367 40.2606 31.3208 40.243 31.435Z"
        fill="#179BD7"/>
</svg>
